<svg width="256" height="256" viewBox="0 0 256 256" fill="none" xmlns="http://www.w3.org/2000/svg">
  <path d="M128 24C84.921 24 50 58.921 50 102C50 159 128 232 128 232C128 232 206 159 206 102C206 58.921 171.079 24 128 24Z" fill="#2F80ED"/>
  <circle cx="128" cy="102" r="46" fill="white"/>
  <path d="M112 76C112 72.6863 114.686 70 118 70H143L158 85V128C158 131.314 155.314 134 152 134H118C114.686 134 112 131.314 112 128V76Z" fill="#DCEBFF"/>
  <path d="M143 70V81C143 84.3137 145.686 87 149 87H158" fill="#B8D5FF"/>
  <rect x="120" y="94" width="30" height="5" rx="2.5" fill="#2F80ED"/>
  <rect x="120" y="104" width="24" height="5" rx="2.5" fill="#2F80ED" fill-opacity="0.8"/>
  <circle cx="147" cy="121" r="8" fill="#19C2B8"/>
  <circle cx="147" cy="121" r="3" fill="white"/>
</svg>
