<svg width="256" height="256" viewBox="0 0 256 256" fill="none" xmlns="http://www.w3.org/2000/svg">
  <rect width="256" height="256" rx="56" fill="#1558D6"/>
  <rect x="10" y="10" width="236" height="236" rx="46" stroke="#8FC2FF" stroke-opacity="0.26" stroke-width="8"/>
  <path d="M128 42C89.3401 42 58 72.8924 58 111C58 164.222 119.565 217.882 125.727 223.103C127.023 224.201 128.977 224.201 130.273 223.103C136.435 217.882 198 164.222 198 111C198 72.8924 166.66 42 128 42Z" fill="white"/>
  <path d="M128 72C105.909 72 88 89.4614 88 111C88 137.722 116.4 164.868 125.759 173.176C127.044 174.317 128.956 174.317 130.241 173.176C139.6 164.868 168 137.722 168 111C168 89.4614 150.091 72 128 72Z" fill="#1558D6"/>
  <rect x="108" y="92" width="32" height="28" rx="8" fill="white"/>
  <path d="M132 92H138.5L146 99.5V120H132V92Z" fill="#DCEBFF"/>
  <rect x="114" y="104" width="18" height="4" rx="2" fill="#1558D6"/>
  <rect x="114" y="112" width="24" height="4" rx="2" fill="#1558D6" fill-opacity="0.72"/>
  <circle cx="155" cy="87" r="16" fill="#19C2B8"/>
  <circle cx="155" cy="87" r="7" fill="white"/>
  <circle cx="155" cy="87" r="3" fill="#1558D6"/>
</svg>
